<svg xmlns="http://www.w3.org/2000/svg" preserveAspectRatio="none" viewBox="346 417.44 388.01 245.12"><title>ÍCONE_1</title><g id="Camada_2" data-name="Camada 2"><path d="M464.68,645.25q-25.77,0-47.41-8.44a110.45,110.45,0,0,1-62.36-60Q346,556.16,346,531.34t8.91-45.5a109.7,109.7,0,0,1,25-36.11,113.09,113.09,0,0,1,37.71-23.86q21.63-8.43,47.72-8.43,26.42,0,48.36,8.59a101.75,101.75,0,0,1,24.51,13.83,105.68,105.68,0,0,1,11.17,9.81l-19.52,20.91A86.59,86.59,0,0,0,501.42,452a89.28,89.28,0,0,0-34.83-6.21,97.2,97.2,0,0,0-35.48,6.37,84.64,84.64,0,0,0-28.32,17.81,79.29,79.29,0,0,0-18.45,27.21,92.14,92.14,0,0,0,0,68.09,80.87,80.87,0,0,0,18.45,27.36,83.69,83.69,0,0,0,28.16,18,95.76,95.76,0,0,0,35.32,6.37,105.68,105.68,0,0,0,34.2-5.57,84.21,84.21,0,0,0,30.39-18.61L549,616.93a113.21,113.21,0,0,1-38.66,21.16A147.37,147.37,0,0,1,464.68,645.25Zm53.77-32.46V530.07H549v86.86Z"></path><path d="M602.9,420h-22q0,11,0,22.08Z"></path><path d="M733.25,615H612.66V451.62l-31.87,31.87-.12,133.44A113.59,113.59,0,0,0,600,630.42a118.07,118.07,0,0,0,30.32,11.46c17.11,4.07,27,3.18,67.45,2.93,8.21,0,20.75-.09,36.24,0Z"></path><path d="M486.08,658.05a123,123,0,0,0,78.86-24.26,125,125,0,0,0,78.85,24.26c-8.18,2.71-28.82,8.27-52.57.68a82.13,82.13,0,0,1-26.28-14.16,100.7,100.7,0,0,1-26.29,12.13A103.6,103.6,0,0,1,486.08,658.05Z"></path></g></svg>